PathFileType	4	(X/Y/Z)	s09c0302.trc
DataRate	CameraRate	NumFrames	NumMarkers	Units	OrigDataRate	OrigDataStartFrame	OrigNumFrames
200	200	5	50	mm	200	0	2000
Frame#	Time	racr			lacr			c7			jug			rlel			rdr			llel			ldr			s2			lic			ric			lasi			rasi			rpsi			lpsi			rgt			lgt			rth1			rth2			rth3			rth4			rlfc			rmfc			rsh1			rsh2			rsh3			rsh4			rlmal			rmmal			rcal			rtoe			rmt5			lth1			lth2			lth4			lth3			llfc			lmfc			llmal			lmmal			lcal			lmt5			lsh1			lsh2			lsh3			lsh4			ltoe			SBIKE			LBIKE			RBIKE			
		X1	Y1	Z1	X2	Y2	Z2	X3	Y3	Z3	X4	Y4	Z4	X5	Y5	Z5	X6	Y6	Z6	X7	Y7	Z7	X8	Y8	Z8	X9	Y9	Z9	X10	Y10	Z10	X11	Y11	Z11	X12	Y12	Z12	X13	Y13	Z13	X14	Y14	Z14	X15	Y15	Z15	X16	Y16	Z16	X17	Y17	Z17	X18	Y18	Z18	X19	Y19	Z19	X20	Y20	Z20	X21	Y21	Z21	X22	Y22	Z22	X23	Y23	Z23	X24	Y24	Z24	X25	Y25	Z25	X26	Y26	Z26	X27	Y27	Z27	X28	Y28	Z28	X29	Y29	Z29	X30	Y30	Z30	X31	Y31	Z31	X32	Y32	Z32	X33	Y33	Z33	X34	Y34	Z34	X35	Y35	Z35	X36	Y36	Z36	X37	Y37	Z37	X38	Y38	Z38	X39	Y39	Z39	X40	Y40	Z40	X41	Y41	Z41	X42	Y42	Z42	X43	Y43	Z43	X44	Y44	Z44	X45	Y45	Z45	X46	Y46	Z46	X47	Y47	Z47	X48	Y48	Z48	X49	Y49	Z49	X50	Y50	Z50	
0	0.0000	473.598923	1270.603442	-98.014409	471.816426	1263.397293	-404.492425	420.720344	1299.090657	-250.543914	429.585795	1163.801953	-249.494081	504.242677	1030.564697	-1.203443	700.396084	876.912419	-53.503370	468.612131	994.225627	-495.044835	687.942996	873.960527	-438.941878	-59.882990	1150.444019	-231.953008	76.300471	1129.166961	-378.410714	91.929131	1126.221407	-89.922778	104.309802	1064.399926	-359.483371	123.109202	1064.381768	-108.191695	-21.410345	1174.007890	-174.023035	-26.525712	1184.098982	-281.774698	44.556552	988.398746	-39.914363	29.181572	1015.094880	-429.658913	129.584373	876.029014	-43.817947	199.237463	824.446043	-49.469435	231.042394	741.230503	-58.455429	225.504777	843.261804	-67.034659	274.832993	654.632503	-90.514296	258.916161	641.588305	-187.048059	201.817233	580.023594	-62.316643	170.880567	496.616690	-77.528865	103.711345	440.468817	-78.337370	192.335068	486.024036	-109.234287	43.307008	359.217435	-81.324793	46.603739	372.756457	-159.355055	-44.972175	339.065477	-121.470608	214.349799	281.446481	-125.397780	131.119561	281.073702	-60.650076	144.736859	937.820858	-430.651153	227.884273	919.762636	-425.007469	245.419393	951.582899	-413.669854	294.759310	858.852899	-420.297240	369.787810	797.487160	-404.457871	390.839542	789.268404	-307.579285	336.132977	434.246577	-410.405686	350.186750	446.742579	-338.935483	271.139697	387.154287	-373.287334	444.490918	368.003302	-434.295428	357.618100	698.301509	-426.840528	373.634235	613.120562	-418.206563	343.388845	529.797817	-416.447503	399.315707	613.864595	-388.088038	532.960175	399.445314	-366.174398	-65.364361	851.227328	-240.910605	21.263255	83.552794	-442.337325	21.230618	83.790923	-43.902822	
1	0.0050	473.600192	1270.600073	-97.994479	471.809305	1263.402218	-404.475047	420.742735	1299.095940	-250.529813	429.558193	1163.804326	-249.471857	504.244971	1030.537213	-1.211027	700.387342	876.918027	-53.481306	468.622966	994.244299	-495.046796	687.964222	873.942147	-438.920061	-59.872326	1150.472686	-231.961021	76.286994	1129.168108	-378.440938	91.936814	1126.227052	-89.910549	104.301038	1064.408155	-359.462705	123.113012	1064.413486	-108.149862	-21.400868	1174.029994	-174.019603	-26.533645	1184.119426	-281.750552	44.532919	988.403467	-39.905769	29.177176	1015.111190	-429.653554	129.568336	876.036516	-43.795239	199.211780	824.483465	-49.466277	231.037104	741.244095	-58.463228	225.493755	843.262434	-67.051483	274.822401	654.636847	-90.510308	258.892583	641.591432	-187.067308	201.813128	580.022131	-62.315780	170.890559	496.611847	-77.524833	103.715038	440.460664	-78.326903	192.335381	486.004626	-109.247141	43.325107	359.170519	-81.329031	46.641870	372.714923	-159.354960	-44.970241	339.071136	-121.452829	214.377384	281.422780	-125.393372	131.134519	281.046340	-60.657698	144.740344	937.853913	-430.637010	227.885672	919.795490	-425.000377	245.428495	951.619855	-413.657639	294.771884	858.897145	-420.299049	369.798497	797.526932	-404.467391	390.811912	789.303175	-307.562023	336.140786	434.271616	-410.399425	350.199171	446.772119	-338.936279	271.134263	387.176083	-373.284460	444.475109	368.019330	-434.292852	357.634271	698.328622	-426.834999	373.653910	613.143297	-418.194124	343.404411	529.810933	-416.450150	399.312433	613.888310	-388.074304	532.965420	399.476548	-366.168337	-65.361626	851.231979	-240.905549	21.275315	83.541484	-442.351298	21.240420	83.766958	-43.887678	
2	0.0100	473.602015	1270.606937	-97.982806	471.811335	1263.398853	-404.453400	420.734797	1299.081666	-250.476393	429.551927	1163.796184	-249.456781	504.255311	1030.540163	-1.202912	700.396923	876.922731	-53.479385	468.629095	994.248161	-495.039599	687.981488	873.950108	-438.909205	-59.882170	1150.476704	-231.965065	76.277185	1129.182044	-378.432922	91.925532	1126.243798	-89.901068	104.289742	1064.420991	-359.454962	123.115337	1064.430304	-108.111258	-21.379969	1174.032910	-174.025060	-26.533484	1184.127998	-281.739403	44.525801	988.411657	-39.901250	29.174821	1015.144565	-429.657940	129.560320	876.052102	-43.786005	199.210866	824.483523	-49.467670	231.008291	741.265171	-58.455470	225.487287	843.280003	-67.030305	274.815894	654.652191	-90.500347	258.875803	641.597885	-187.074109	201.796031	580.029602	-62.305799	170.893710	496.606049	-77.512404	103.719515	440.433141	-78.312886	192.329386	486.005354	-109.249184	43.337138	359.136279	-81.303564	46.662689	372.689795	-159.334866	-44.943313	339.032541	-121.423566	214.389757	281.415094	-125.366146	131.141971	281.017506	-60.642879	144.747792	937.893944	-430.640185	227.874207	919.862590	-424.991209	245.415561	951.655661	-413.666829	294.767380	858.933960	-420.319771	369.797335	797.556545	-404.462825	390.830832	789.327287	-307.560696	336.138163	434.303743	-410.402984	350.191268	446.788288	-338.938155	271.128346	387.212204	-373.289527	444.469661	368.051714	-434.315762	357.628097	698.358079	-426.819389	373.640424	613.169108	-418.197003	343.395498	529.838649	-416.447934	399.308987	613.908989	-388.079209	532.958879	399.488276	-366.152195	-65.361626	851.231979	-240.905549	21.282623	83.533231	-442.343918	21.253740	83.753708	-43.877410	
3	0.0150	473.358334	1271.239694	-97.604497	471.794367	1263.402763	-404.451895	420.770588	1299.031513	-250.419058	429.417642	1164.427294	-249.303770	504.262333	1030.528308	-1.208445	700.383270	876.882559	-53.509115	468.490692	994.358018	-495.267892	687.850906	874.349371	-438.770886	-59.886093	1150.491129	-231.956512	76.276863	1129.215741	-378.430746	91.712988	1126.011513	-89.844898	104.277724	1064.445382	-359.464642	122.764820	1064.312296	-108.097203	-18.210489	1171.932897	-176.497616	-25.161173	1183.115198	-282.735513	44.841652	988.341101	-39.625000	29.173626	1015.165306	-429.662477	129.417942	875.775897	-43.192916	199.621240	824.073696	-49.332464	231.009288	741.257519	-58.439937	225.491844	843.289118	-67.021687	274.806102	654.645155	-90.507187	258.840444	641.602300	-187.090652	201.807062	580.034309	-62.302844	171.040165	496.489648	-77.277117	103.967498	440.227412	-78.379511	192.374516	485.825419	-109.313033	42.829686	359.876270	-80.764368	47.349906	371.965807	-159.881997	-44.927295	339.011348	-121.416599	214.406162	281.381213	-125.369135	131.162346	280.991185	-60.649237	144.772982	937.684551	-430.682750	227.865697	919.923483	-424.999480	245.180066	952.146647	-413.633568	294.770326	858.962517	-420.297469	369.858623	797.200571	-404.620154	390.830712	789.358837	-307.563001	335.820957	434.891945	-410.726153	350.393823	446.484002	-338.811002	271.129171	387.229138	-373.290849	444.463551	368.085916	-434.306480	357.633229	698.379664	-426.828319	373.614874	613.078752	-418.282005	343.397666	529.878073	-416.449585	399.338277	613.851148	-388.020547	532.962848	399.504779	-366.155224	-65.370198	851.308520	-241.029795	21.276088	83.502139	-442.297948	21.241608	83.769740	-43.876228	
4	0.0200	473.286600	1271.385416	-97.767480	471.682822	1263.633853	-404.447463	420.754626	1298.911292	-250.511762	429.265921	1164.845344	-249.370910	504.123808	1030.893435	-1.152167	700.221583	877.168406	-53.501267	468.403647	994.461480	-495.064525	687.787863	874.245464	-438.781263	-59.754286	1150.723604	-231.834633	76.237850	1129.659219	-378.281734	91.408445	1126.339514	-90.046202	104.246493	1064.505590	-359.553829	122.789269	1064.337820	-108.092596	-18.406799	1172.063601	-177.062637	-25.217156	1183.263320	-282.764809	44.582092	988.695738	-39.665645	29.231865	1015.343609	-429.353578	129.225308	876.044004	-43.276570	199.524776	824.382810	-49.193961	230.803422	741.633184	-58.567689	225.391791	843.587690	-66.901125	274.526781	654.918822	-90.563231	258.786286	641.777502	-187.203342	201.569702	580.329449	-62.288413	170.873981	496.837592	-77.371737	103.604985	440.535702	-78.328796	192.321871	486.170670	-109.285815	42.959478	359.776101	-80.718402	46.925648	372.254723	-159.941993	-44.986664	339.028897	-121.516541	214.210432	281.485560	-125.478738	131.033766	281.270909	-60.611476	144.737274	937.901714	-430.632581	227.781529	920.196047	-424.806899	245.200322	952.153759	-413.645749	294.534486	859.291011	-420.296559	369.638154	797.577155	-404.746944	390.692677	789.733231	-307.034427	335.828299	434.837522	-410.705477	350.195448	446.827011	-338.889632	270.623204	387.574966	-373.979212	444.207499	368.493306	-434.577900	357.550445	698.666665	-426.797484	373.349238	613.458147	-418.407214	343.266206	530.077549	-416.369222	399.207897	614.117850	-388.054605	532.811330	399.673146	-366.204559	-65.340451	851.294605	-241.029040	21.147675	83.696691	-442.350109	21.195794	83.903695	-43.933590	
